<?xml version="1.0" encoding="UTF-8"?>
<!DOCTYPE svg PUBLIC "-//W3C//DTD SVG 1.1//EN" "http://www.w3.org/Graphics/SVG/1.1/DTD/svg11.dtd">
<!-- Creator: CorelDRAW X7 -->
<svg xmlns="http://www.w3.org/2000/svg" xml:space="preserve" width="297mm" height="210mm" version="1.1" style="shape-rendering:geometricPrecision; text-rendering:geometricPrecision; image-rendering:optimizeQuality; fill-rule:evenodd; clip-rule:evenodd"
viewBox="0 0 29700 21000"
 xmlns:xlink="http://www.w3.org/1999/xlink">
 <defs>
  <style type="text/css">
   <![CDATA[
    .fil1 {fill:#ED3237}
    .fil0 {fill:#01008C}
   ]]>
  </style>
 </defs>
 <g id="Camada_x0020_1">
  <metadata id="CorelCorpID_0Corel-Layer"/>
  <path class="fil0" d="M27880 10395l-8868 -7470c-1980,-1668 -3594,-2453 -6224,-2445 -1936,6 -3797,607 -5382,1716 -2729,1910 -4307,5064 -4299,8384 8,3314 1596,6456 4328,8351 1593,1106 3461,1699 5402,1693 2305,-6 4505,-847 6226,-2380l8817 -7849zm-15090 -9298c2556,-7 3883,738 5792,2340l8287 6960 -7177 6412c-229,244 -485,460 -720,697l-7 7c-1659,1584 -3830,2488 -6130,2494 -1822,5 -3576,-552 -5072,-1590 -2564,-1779 -4055,-4728 -4062,-7839 -8,-3116 1474,-6076 4035,-7869 1488,-1042 3236,-1606 5054,-1612z"/>
  <path class="fil0" d="M19140 6650c677,1127 1035,2406 1039,3722 3,1310 -346,2585 -1012,3712 -53,89 -135,144 -238,157 -102,14 -196,-18 -270,-90 -2127,-2078 -4682,-2885 -7582,-2181 -1015,246 -1995,659 -2902,1173 -547,310 -1093,668 -1584,1063 -76,61 -165,83 -261,66 -96,-17 -172,-70 -222,-153 -671,-1124 -1025,-2396 -1028,-3705 -3,-1315 349,-2595 1020,-3726 50,-84 125,-136 221,-154 95,-18 185,5 261,65 1270,1006 2932,1838 4504,2207 2894,679 5437,-142 7546,-2221 74,-72 167,-104 270,-91 102,13 185,67 238,156z"/>
  <path class="fil1" d="M17499 15721c-1270,1101 -2936,1773 -4757,1778 -1813,5 -3475,-651 -4748,-1736 1209,-963 5551,-3899 9505,-42z"/>
  <path class="fil1" d="M12345 3345c1815,-5 3479,653 4753,1740 -3917,3846 -8247,977 -9479,11 1266,-1085 2919,-1746 4726,-1751z"/>
 </g>
</svg>
